<svg width="14" height="16" viewBox="0 0 14 16" fill="none" xmlns="http://www.w3.org/2000/svg">
<path fill-rule="evenodd" clip-rule="evenodd" d="M12.4274 5.09675C12.7406 5.12254 12.9742 5.39635 12.9492 5.7096C12.9447 5.76118 12.5336 10.8513 12.2969 12.9864C12.1498 14.3115 11.2745 15.1178 9.95321 15.142C8.94216 15.1595 7.96676 15.1693 7.01335 15.1693C5.98561 15.1693 4.98366 15.158 3.99233 15.1375C2.72415 15.1125 1.84659 14.2903 1.70324 12.9918C1.46432 10.8377 1.0555 5.76042 1.05171 5.7096C1.02592 5.39635 1.25953 5.12178 1.57278 5.09675C1.88148 5.08841 2.1606 5.30533 2.18563 5.61782C2.18805 5.65075 2.35518 7.72414 2.53731 9.77559L2.57389 10.185C2.66562 11.2046 2.75861 12.1845 2.83413 12.8666C2.91529 13.6046 3.31349 13.9854 4.01584 13.9998C5.91204 14.04 7.84692 14.0422 9.93273 14.0043C10.6791 13.9899 11.0826 13.6167 11.166 12.8613C11.4011 10.7421 11.8107 5.6694 11.8153 5.61782C11.8403 5.30533 12.1172 5.08689 12.4274 5.09675ZM8.60524 0C9.30153 0 9.91362 0.469498 10.0934 1.14227L10.286 2.09871C10.3483 2.41225 10.6234 2.64122 10.942 2.64625L13.4311 2.64633C13.7452 2.64633 14 2.90118 14 3.21519C14 3.5292 13.7452 3.78405 13.4311 3.78405L10.9643 3.78394C10.9604 3.78401 10.9566 3.78405 10.9527 3.78405L10.9342 3.78329L3.06548 3.78396C3.05936 3.78402 3.05324 3.78405 3.04711 3.78405L3.03543 3.78329L0.568859 3.78405C0.254849 3.78405 0 3.5292 0 3.21519C0 2.90118 0.254849 2.64633 0.568859 2.64633L3.05743 2.64557L3.13405 2.64072C3.41946 2.60369 3.65665 2.38693 3.71457 2.09871L3.89888 1.1764C4.08623 0.469498 4.69832 0 5.3946 0H8.60524ZM8.60524 1.13772H5.3946C5.21257 1.13772 5.05253 1.25983 5.00626 1.43504L4.82954 2.32246C4.80708 2.43487 4.77437 2.54319 4.73252 2.64654H9.26756C9.22565 2.54319 9.19287 2.43487 9.17031 2.32246L8.986 1.40015C8.94732 1.25983 8.78728 1.13772 8.60524 1.13772Z" fill="white"/>
</svg>
